<?xml version="1.0" encoding="UTF-8" standalone="no"?>
<svg
   height="24px"
   viewBox="0 -960 960 960"
   width="24px"
   fill="#e3e3e3"
   version="1.1"
   id="svg1"
   sodipodi:docname="ministery-base.svg"
   inkscape:version="1.4.4 (dcaf3e7d9e, 2026-05-05)"
   xmlns:inkscape="http://www.inkscape.org/namespaces/inkscape"
   xmlns:sodipodi="http://sodipodi.sourceforge.net/DTD/sodipodi-0.dtd"
   xmlns="http://www.w3.org/2000/svg"
   xmlns:svg="http://www.w3.org/2000/svg">
  <defs
     id="defs1" />
  <sodipodi:namedview
     id="namedview1"
     pagecolor="#505050"
     bordercolor="#eeeeee"
     borderopacity="1"
     inkscape:showpageshadow="0"
     inkscape:pageopacity="0"
     inkscape:pagecheckerboard="0"
     inkscape:deskcolor="#505050"
     inkscape:zoom="23.145833"
     inkscape:cx="12.831683"
     inkscape:cy="18.469847"
     inkscape:window-width="2560"
     inkscape:window-height="1362"
     inkscape:window-x="0"
     inkscape:window-y="0"
     inkscape:window-maximized="1"
     inkscape:current-layer="svg1" />
  <path
     d="m 720,-120 c -55.33333,0 -102.5,-19.5 -141.5,-58.5 -39,-39 -58.5,-86.16667 -58.5,-141.5 0,-55.33333 19.5,-102.5 58.5,-141.5 39,-39 86.16667,-58.5 141.5,-58.5 55.33333,0 102.5,19.5 141.5,58.5 39,39 58.5,86.16667 58.5,141.5 0,55.33333 -19.5,102.5 -58.5,141.5 -39,39 -86.16667,58.5 -141.5,58.5 z m -560,-80 v -480 l 320,-240 320,240 v 92 c -12.66667,-4 -25.66667,-7 -39,-9 -13.33333,-2 -27,-3 -41,-3 v -40 L 480,-820 240,-640 v 360 h 203 c 2,14 5,27.66667 9,41 4,13.33333 9,26.33333 15,39 z"
     id="path1"
     sodipodi:nodetypes="ssssssssscccccsccccccscc" />
</svg>
